<svg xmlns="http://www.w3.org/2000/svg" viewBox="0 0 32 32">
  <defs>
    <linearGradient id="heartGradient" x1="0%" y1="0%" x2="100%" y2="100%">
      <stop offset="0%" style="stop-color:#ef4444"/>
      <stop offset="100%" style="stop-color:#dc2626"/>
    </linearGradient>
  </defs>
  <path fill="url(#heartGradient)" d="M16 28.5l-1.4-1.3C6.4 19.6 2 15.6 2 10.7 2 6.7 5.2 3.5 9.2 3.5c2.3 0 4.5 1.1 5.8 2.8 1.3-1.7 3.5-2.8 5.8-2.8 4 0 7.2 3.2 7.2 7.2 0 4.9-4.4 8.9-12.6 16.5L16 28.5z"/>
  <path fill="#ffffff" opacity="0.3" d="M9.2 5.5c-2.9 0-5.2 2.3-5.2 5.2 0 3.5 3.1 6.4 7.8 10.8L16 25.3l4.2-3.8c4.7-4.4 7.8-7.3 7.8-10.8 0-2.9-2.3-5.2-5.2-5.2-1.6 0-3.2.8-4.2 2l-2.6 3-2.6-3c-1-1.2-2.6-2-4.2-2z"/>
</svg>
